# xmcd
#
# Track frame offsets:
#	150
#	5947
#	16508
#	26706
#	46293
#	65881
#	80917
#	94648
#	104828
#	115382
#	131692
#	144010
#	156652
#
# Disc length: 2442 seconds
#
# Revision: 3
# Processed by: cddbd v1.5.1PL0 Copyright (c) Steve Scherf et al.
# Submitted via: EasyCDDAExtractor 4.6.9.1
#
DISCID=b809880d
DTITLE=Blackstone Valley Sinners - It's A Sin
DYEAR=2002
DGENRE=Country
TTITLE0=Intro
TTITLE1=Blackstone Valley Sinners
TTITLE2=It's A Sin To Tell A Lie
TTITLE3=Slater Mill
TTITLE4=Cranston Sinner
TTITLE5=Fraulein
TTITLE6=Lethal Injection
TTITLE7=Intermission Music
TTITLE8=Knightsville
TTITLE9=Saturday Satan Sunday Saint
TTITLE10=Rainbows Are Back In Style
TTITLE11=Pawtucket Pickup
TTITLE12=Fairy Tales
EXTD=
EXTT0=
EXTT1=
EXTT2=
EXTT3=
EXTT4=
EXTT5=
EXTT6=
EXTT7=
EXTT8=
EXTT9=
EXTT10=
EXTT11=
EXTT12=
PLAYORDER=
